<mxfile host="app.diagrams.net" modified="2024-03-20T03:29:41.022Z" agent="Mozilla/5.0 (Windows NT 10.0; Win64; x64) AppleWebKit/537.36 (KHTML, like Gecko) Chrome/122.0.0.0 Safari/537.36" etag="mbQMoxF6D-pZC2LrnwJ2" version="24.0.7" type="device">
  <diagram name="Page-1" id="f1b7ffb7-ca1e-a977-7cf5-a751b3c06c05">
    <mxGraphModel dx="2868" dy="1476" grid="1" gridSize="10" guides="1" tooltips="1" connect="1" arrows="1" fold="1" page="1" pageScale="1" pageWidth="826" pageHeight="1169" background="none" math="0" shadow="0">
      <root>
        <mxCell id="0" />
        <mxCell id="1" parent="0" />
        <mxCell id="SU74-nfXeF7uWK5UfqKg-65" value="&lt;font style=&quot;font-size: 24px;&quot;&gt;&amp;nbsp;Background color&amp;nbsp;#CCE8EE (extremely Light blue)&lt;/font&gt;" style="text;strokeColor=none;align=center;fillColor=none;html=1;verticalAlign=middle;whiteSpace=wrap;rounded=0;" vertex="1" parent="1">
          <mxGeometry x="1330" y="240" width="240" height="130" as="geometry" />
        </mxCell>
        <mxCell id="SU74-nfXeF7uWK5UfqKg-66" value="&lt;font style=&quot;font-size: 24px;&quot;&gt;white filled with black outline and text&lt;/font&gt;" style="text;strokeColor=none;align=center;fillColor=none;html=1;verticalAlign=middle;whiteSpace=wrap;rounded=0;" vertex="1" parent="1">
          <mxGeometry x="910" y="620" width="240" height="60" as="geometry" />
        </mxCell>
        <mxCell id="SU74-nfXeF7uWK5UfqKg-68" value="Password input" style="rounded=1;whiteSpace=wrap;html=1;fontSize=24;" vertex="1" parent="1">
          <mxGeometry x="50" y="530" width="510" height="60" as="geometry" />
        </mxCell>
        <mxCell id="SU74-nfXeF7uWK5UfqKg-70" value="Email input" style="rounded=1;whiteSpace=wrap;html=1;fontSize=24;" vertex="1" parent="1">
          <mxGeometry x="50" y="430" width="510" height="60" as="geometry" />
        </mxCell>
        <mxCell id="SU74-nfXeF7uWK5UfqKg-72" value="&lt;font style=&quot;font-size: 24px;&quot;&gt;Login btn&lt;/font&gt;" style="rounded=1;whiteSpace=wrap;html=1;" vertex="1" parent="1">
          <mxGeometry x="610" y="455" width="190" height="120" as="geometry" />
        </mxCell>
        <mxCell id="SU74-nfXeF7uWK5UfqKg-73" style="edgeStyle=orthogonalEdgeStyle;rounded=0;orthogonalLoop=1;jettySize=auto;html=1;exitX=1;exitY=0.5;exitDx=0;exitDy=0;" edge="1" parent="1" source="SU74-nfXeF7uWK5UfqKg-74">
          <mxGeometry relative="1" as="geometry">
            <mxPoint x="960" y="89.81818181818176" as="targetPoint" />
          </mxGeometry>
        </mxCell>
        <mxCell id="SU74-nfXeF7uWK5UfqKg-74" value="IMG BTN&lt;div&gt;Logo&lt;/div&gt;" style="rounded=1;whiteSpace=wrap;html=1;" vertex="1" parent="1">
          <mxGeometry x="50" y="40" width="180" height="100" as="geometry" />
        </mxCell>
        <mxCell id="SU74-nfXeF7uWK5UfqKg-75" value="&lt;font style=&quot;font-size: 24px;&quot;&gt;Goes to home page through logo click&amp;nbsp;&lt;/font&gt;" style="text;html=1;align=center;verticalAlign=middle;whiteSpace=wrap;rounded=0;" vertex="1" parent="1">
          <mxGeometry x="1029" y="75" width="220" height="30" as="geometry" />
        </mxCell>
        <mxCell id="SU74-nfXeF7uWK5UfqKg-77" value="&lt;font style=&quot;font-size: 24px;&quot;&gt;Register btn&lt;/font&gt;" style="rounded=1;whiteSpace=wrap;html=1;" vertex="1" parent="1">
          <mxGeometry x="80" y="810" width="680" height="60" as="geometry" />
        </mxCell>
        <mxCell id="SU74-nfXeF7uWK5UfqKg-79" value="Forgot Password BTN" style="rounded=1;whiteSpace=wrap;html=1;fontSize=24;" vertex="1" parent="1">
          <mxGeometry x="85" y="640" width="440" height="60" as="geometry" />
        </mxCell>
        <mxCell id="SU74-nfXeF7uWK5UfqKg-80" value="&lt;font style=&quot;font-size: 24px;&quot;&gt;light Orange with white text button&lt;/font&gt;" style="text;strokeColor=none;align=center;fillColor=none;html=1;verticalAlign=middle;whiteSpace=wrap;rounded=0;" vertex="1" parent="1">
          <mxGeometry x="1100" y="500" width="210" height="30" as="geometry" />
        </mxCell>
        <mxCell id="SU74-nfXeF7uWK5UfqKg-81" value="User btn" style="rounded=1;whiteSpace=wrap;html=1;fontSize=24;" vertex="1" parent="1">
          <mxGeometry x="50" y="340" width="130" height="60" as="geometry" />
        </mxCell>
        <mxCell id="SU74-nfXeF7uWK5UfqKg-82" value="Supplier btn" style="rounded=1;whiteSpace=wrap;html=1;fontSize=24;" vertex="1" parent="1">
          <mxGeometry x="240" y="340" width="130" height="60" as="geometry" />
        </mxCell>
        <mxCell id="SU74-nfXeF7uWK5UfqKg-83" value="Admin btn" style="rounded=1;whiteSpace=wrap;html=1;fontSize=24;" vertex="1" parent="1">
          <mxGeometry x="430" y="340" width="130" height="60" as="geometry" />
        </mxCell>
        <mxCell id="SU74-nfXeF7uWK5UfqKg-87" value="" style="rounded=1;whiteSpace=wrap;html=1;arcSize=8;" vertex="1" parent="1">
          <mxGeometry x="10" y="10" width="820" height="1140" as="geometry" />
        </mxCell>
        <mxCell id="SU74-nfXeF7uWK5UfqKg-88" value="&lt;font style=&quot;font-size: 24px;&quot;&gt;All text is Font&amp;nbsp;&lt;/font&gt;&lt;div&gt;&lt;font style=&quot;&quot;&gt;&lt;font style=&quot;font-size: 24px;&quot;&gt;Montserrat&lt;/font&gt;&lt;br&gt;&lt;/font&gt;&lt;/div&gt;" style="text;strokeColor=none;align=center;fillColor=none;html=1;verticalAlign=middle;whiteSpace=wrap;rounded=0;" vertex="1" parent="1">
          <mxGeometry x="1330" y="160" width="240" height="90" as="geometry" />
        </mxCell>
        <mxCell id="SU74-nfXeF7uWK5UfqKg-92" value="Email input" style="rounded=1;whiteSpace=wrap;html=1;fontSize=24;" vertex="1" parent="1">
          <mxGeometry x="158" y="520" width="510" height="60" as="geometry" />
        </mxCell>
        <mxCell id="SU74-nfXeF7uWK5UfqKg-94" value="Supplier Company name input" style="rounded=1;whiteSpace=wrap;html=1;fontSize=24;" vertex="1" parent="1">
          <mxGeometry x="158" y="430" width="510" height="60" as="geometry" />
        </mxCell>
        <mxCell id="SU74-nfXeF7uWK5UfqKg-96" value="&lt;span style=&quot;font-size: 24px;&quot;&gt;Login btn&lt;/span&gt;" style="rounded=1;whiteSpace=wrap;html=1;" vertex="1" parent="1">
          <mxGeometry x="318" y="820" width="190" height="70" as="geometry" />
        </mxCell>
        <mxCell id="SU74-nfXeF7uWK5UfqKg-97" style="edgeStyle=orthogonalEdgeStyle;rounded=0;orthogonalLoop=1;jettySize=auto;html=1;exitX=1;exitY=0.5;exitDx=0;exitDy=0;" edge="1" parent="1" source="SU74-nfXeF7uWK5UfqKg-98">
          <mxGeometry relative="1" as="geometry">
            <mxPoint x="960" y="89.81818181818176" as="targetPoint" />
          </mxGeometry>
        </mxCell>
        <mxCell id="SU74-nfXeF7uWK5UfqKg-98" value="IMG BTN&lt;div&gt;Logo&lt;/div&gt;" style="rounded=1;whiteSpace=wrap;html=1;" vertex="1" parent="1">
          <mxGeometry x="50" y="40" width="180" height="100" as="geometry" />
        </mxCell>
        <mxCell id="SU74-nfXeF7uWK5UfqKg-99" value="&lt;font style=&quot;font-size: 24px;&quot;&gt;Goes to home page through logo click&amp;nbsp;&lt;/font&gt;" style="text;html=1;align=center;verticalAlign=middle;whiteSpace=wrap;rounded=0;" vertex="1" parent="1">
          <mxGeometry x="1029" y="75" width="220" height="30" as="geometry" />
        </mxCell>
        <mxCell id="SU74-nfXeF7uWK5UfqKg-100" style="edgeStyle=orthogonalEdgeStyle;rounded=0;orthogonalLoop=1;jettySize=auto;html=1;exitX=1;exitY=0.5;exitDx=0;exitDy=0;entryX=0.75;entryY=1;entryDx=0;entryDy=0;" edge="1" parent="1" source="SU74-nfXeF7uWK5UfqKg-101" target="SU74-nfXeF7uWK5UfqKg-104">
          <mxGeometry relative="1" as="geometry">
            <mxPoint x="1270.0000000000005" y="550" as="targetPoint" />
          </mxGeometry>
        </mxCell>
        <mxCell id="SU74-nfXeF7uWK5UfqKg-101" value="&lt;font style=&quot;font-size: 24px;&quot;&gt;Register instead btn&lt;/font&gt;" style="rounded=1;whiteSpace=wrap;html=1;" vertex="1" parent="1">
          <mxGeometry x="73" y="1030" width="680" height="60" as="geometry" />
        </mxCell>
        <mxCell id="SU74-nfXeF7uWK5UfqKg-113" style="edgeStyle=orthogonalEdgeStyle;rounded=0;orthogonalLoop=1;jettySize=auto;html=1;exitX=1;exitY=0.5;exitDx=0;exitDy=0;entryX=0.75;entryY=1;entryDx=0;entryDy=0;" edge="1" parent="1" source="SU74-nfXeF7uWK5UfqKg-103" target="SU74-nfXeF7uWK5UfqKg-66">
          <mxGeometry relative="1" as="geometry" />
        </mxCell>
        <mxCell id="SU74-nfXeF7uWK5UfqKg-103" value="Forgot Password BTN" style="rounded=1;whiteSpace=wrap;html=1;fontSize=24;" vertex="1" parent="1">
          <mxGeometry x="193" y="700" width="440" height="60" as="geometry" />
        </mxCell>
        <mxCell id="SU74-nfXeF7uWK5UfqKg-104" value="&lt;font style=&quot;font-size: 24px;&quot;&gt;light Orange with white text button&lt;/font&gt;" style="text;strokeColor=none;align=center;fillColor=none;html=1;verticalAlign=middle;whiteSpace=wrap;rounded=0;" vertex="1" parent="1">
          <mxGeometry x="1100" y="500" width="210" height="30" as="geometry" />
        </mxCell>
        <mxCell id="SU74-nfXeF7uWK5UfqKg-119" style="edgeStyle=orthogonalEdgeStyle;rounded=0;orthogonalLoop=1;jettySize=auto;html=1;exitX=0.5;exitY=0;exitDx=0;exitDy=0;" edge="1" parent="1" source="SU74-nfXeF7uWK5UfqKg-105">
          <mxGeometry relative="1" as="geometry">
            <mxPoint x="1030" y="610" as="targetPoint" />
          </mxGeometry>
        </mxCell>
        <mxCell id="SU74-nfXeF7uWK5UfqKg-105" value="User btn" style="rounded=1;whiteSpace=wrap;html=1;fontSize=24;" vertex="1" parent="1">
          <mxGeometry x="158" y="340" width="130" height="60" as="geometry" />
        </mxCell>
        <mxCell id="SU74-nfXeF7uWK5UfqKg-118" style="edgeStyle=orthogonalEdgeStyle;rounded=0;orthogonalLoop=1;jettySize=auto;html=1;exitX=0.5;exitY=0;exitDx=0;exitDy=0;" edge="1" parent="1" source="SU74-nfXeF7uWK5UfqKg-106">
          <mxGeometry relative="1" as="geometry">
            <mxPoint x="1030" y="610" as="targetPoint" />
          </mxGeometry>
        </mxCell>
        <mxCell id="SU74-nfXeF7uWK5UfqKg-106" value="Supplier btn" style="rounded=1;whiteSpace=wrap;html=1;fontSize=24;" vertex="1" parent="1">
          <mxGeometry x="348" y="340" width="130" height="60" as="geometry" />
        </mxCell>
        <mxCell id="SU74-nfXeF7uWK5UfqKg-117" style="edgeStyle=orthogonalEdgeStyle;rounded=0;orthogonalLoop=1;jettySize=auto;html=1;exitX=1;exitY=0.5;exitDx=0;exitDy=0;" edge="1" parent="1" source="SU74-nfXeF7uWK5UfqKg-107" target="SU74-nfXeF7uWK5UfqKg-66">
          <mxGeometry relative="1" as="geometry" />
        </mxCell>
        <mxCell id="SU74-nfXeF7uWK5UfqKg-107" value="Admin btn" style="rounded=1;whiteSpace=wrap;html=1;fontSize=24;" vertex="1" parent="1">
          <mxGeometry x="538" y="340" width="130" height="60" as="geometry" />
        </mxCell>
        <mxCell id="SU74-nfXeF7uWK5UfqKg-114" style="edgeStyle=orthogonalEdgeStyle;rounded=0;orthogonalLoop=1;jettySize=auto;html=1;exitX=1;exitY=0.5;exitDx=0;exitDy=0;entryX=0.5;entryY=1;entryDx=0;entryDy=0;" edge="1" parent="1" source="SU74-nfXeF7uWK5UfqKg-109" target="SU74-nfXeF7uWK5UfqKg-66">
          <mxGeometry relative="1" as="geometry" />
        </mxCell>
        <mxCell id="SU74-nfXeF7uWK5UfqKg-109" value="Password input" style="rounded=1;whiteSpace=wrap;html=1;fontSize=24;" vertex="1" parent="1">
          <mxGeometry x="158" y="610" width="510" height="60" as="geometry" />
        </mxCell>
        <mxCell id="SU74-nfXeF7uWK5UfqKg-111" style="edgeStyle=orthogonalEdgeStyle;rounded=0;orthogonalLoop=1;jettySize=auto;html=1;exitX=1;exitY=0.5;exitDx=0;exitDy=0;entryX=0.59;entryY=1.2;entryDx=0;entryDy=0;entryPerimeter=0;" edge="1" parent="1" source="SU74-nfXeF7uWK5UfqKg-96" target="SU74-nfXeF7uWK5UfqKg-104">
          <mxGeometry relative="1" as="geometry" />
        </mxCell>
        <mxCell id="SU74-nfXeF7uWK5UfqKg-115" style="edgeStyle=orthogonalEdgeStyle;rounded=0;orthogonalLoop=1;jettySize=auto;html=1;exitX=1;exitY=0.5;exitDx=0;exitDy=0;entryX=0.183;entryY=0;entryDx=0;entryDy=0;entryPerimeter=0;" edge="1" parent="1" source="SU74-nfXeF7uWK5UfqKg-92" target="SU74-nfXeF7uWK5UfqKg-66">
          <mxGeometry relative="1" as="geometry" />
        </mxCell>
        <mxCell id="SU74-nfXeF7uWK5UfqKg-116" style="edgeStyle=orthogonalEdgeStyle;rounded=0;orthogonalLoop=1;jettySize=auto;html=1;exitX=1;exitY=0.5;exitDx=0;exitDy=0;entryX=0.325;entryY=-0.033;entryDx=0;entryDy=0;entryPerimeter=0;" edge="1" parent="1" source="SU74-nfXeF7uWK5UfqKg-94" target="SU74-nfXeF7uWK5UfqKg-66">
          <mxGeometry relative="1" as="geometry" />
        </mxCell>
      </root>
    </mxGraphModel>
  </diagram>
</mxfile>
